<svg xmlns="http://www.w3.org/2000/svg" height="40" viewBox="0 96 960 960" width="40" fill="white"><path d="M480 703.333 503.333 680l-87.077-87.077h200.667v-33.846H416.256L503.333 472 480 448.667 352.667 576 480 703.333ZM480.134 936q-74.519 0-139.999-28.339-65.481-28.34-114.442-77.255-48.961-48.915-77.327-114.335Q120 650.652 120 576.134q0-74.673 28.339-140.41 28.34-65.737 77.255-114.365 48.915-48.627 114.335-76.993Q405.348 216 479.866 216q74.673 0 140.41 28.339 65.737 28.34 114.365 76.922 48.627 48.582 76.993 114.257Q840 501.194 840 575.866q0 74.519-28.339 139.999-28.34 65.481-76.922 114.442-48.582 48.961-114.257 77.327Q554.806 936 480.134 936Z"/></svg>